{
  "accessors": [
    {
      "bufferView": 2,
      "componentType": 5126,
      "count": 4714,
      "max": [
        104.90168762207031,
        86.89727783203125,
        147.29515075683594
      ],
      "min": [
        -105.44974517822266,
        -91.899116516113281,
        -137.9443359375
      ],
      "type": "VEC3"
    },
    {
      "bufferView": 2,
      "byteOffset": 56568,
      "componentType": 5126,
      "count": 4714,
      "max": [
        1,
        1,
        1
      ],
      "min": [
        -1,
        -1,
        -1
      ],
      "type": "VEC3"
    },
    {
      "bufferView": 3,
      "componentType": 5126,
      "count": 4714,
      "max": [
        1,
        1,
        1,
        1
      ],
      "min": [
        -1,
        -1,
        -1,
        -1
      ],
      "type": "VEC4"
    },
    {
      "bufferView": 1,
      "componentType": 5126,
      "count": 4714,
      "max": [
        0.9996337890625,
        0.99459570646286011
      ],
      "min": [
        0.0003662109375,
        0.0003662109375
      ],
      "type": "VEC2"
    },
    {
      "bufferView": 1,
      "byteOffset": 37712,
      "componentType": 5126,
      "count": 4714,
      "max": [
        0.9996337890625,
        0.99459570646286011
      ],
      "min": [
        0.0003662109375,
        0.0003662109375
      ],
      "type": "VEC2"
    },
    {
      "bufferView": 1,
      "byteOffset": 75424,
      "componentType": 5126,
      "count": 4714,
      "max": [
        0.9996337890625,
        0.99459570646286011
      ],
      "min": [
        0.0003662109375,
        0.0003662109375
      ],
      "type": "VEC2"
    },
    {
      "bufferView": 1,
      "byteOffset": 113136,
      "componentType": 5126,
      "count": 4714,
      "max": [
        0.9996337890625,
        0.99459570646286011
      ],
      "min": [
        0.0003662109375,
        0.0003662109375
      ],
      "type": "VEC2"
    },
    {
      "bufferView": 1,
      "byteOffset": 150848,
      "componentType": 5126,
      "count": 4714,
      "max": [
        0.9996337890625,
        0.99459570646286011
      ],
      "min": [
        0.0003662109375,
        0.0003662109375
      ],
      "type": "VEC2"
    },
    {
      "bufferView": 1,
      "byteOffset": 188560,
      "componentType": 5126,
      "count": 4714,
      "max": [
        0.9996337890625,
        0.99459570646286011
      ],
      "min": [
        0.0003662109375,
        0.0003662109375
      ],
      "type": "VEC2"
    },
    {
      "bufferView": 1,
      "byteOffset": 226272,
      "componentType": 5126,
      "count": 4714,
      "max": [
        0.9996337890625,
        0.99459570646286011
      ],
      "min": [
        0.0003662109375,
        0.0003662109375
      ],
      "type": "VEC2"
    },
    {
      "bufferView": 1,
      "byteOffset": 263984,
      "componentType": 5126,
      "count": 4714,
      "max": [
        0.9996337890625,
        0.99459570646286011
      ],
      "min": [
        0.0003662109375,
        0.0003662109375
      ],
      "type": "VEC2"
    },
    {
      "bufferView": 1,
      "byteOffset": 301696,
      "componentType": 5126,
      "count": 4714,
      "max": [
        0.9996337890625,
        0.99459570646286011
      ],
      "min": [
        0.0003662109375,
        0.0003662109375
      ],
      "type": "VEC2"
    },
    {
      "bufferView": 1,
      "byteOffset": 339408,
      "componentType": 5126,
      "count": 4714,
      "max": [
        0.9996337890625,
        0.99459570646286011
      ],
      "min": [
        0.0003662109375,
        0.0003662109375
      ],
      "type": "VEC2"
    },
    {
      "bufferView": 0,
      "componentType": 5125,
      "count": 18438,
      "max": [
        4713
      ],
      "min": [
        0
      ],
      "type": "SCALAR"
    }
  ],
  "asset": {
    "extras": {
      "author": "Whostea (https://sketchfab.com/Whostea)",
      "license": "CC-BY-4.0 (http://creativecommons.org/licenses/by/4.0/)",
      "source": "https://sketchfab.com/3d-models/polaroid-63cf2db47fd34531afd28ff0b93640f4",
      "title": "Polaroid"
    },
    "generator": "Sketchfab-9.48.0",
    "version": "2.0"
  },
  "bufferViews": [
    {
      "buffer": 0,
      "byteLength": 73752,
      "byteOffset": 0,
      "name": "floatBufferViews",
      "target": 34963
    },
    {
      "buffer": 0,
      "byteLength": 377120,
      "byteOffset": 73752,
      "byteStride": 8,
      "name": "floatBufferViews",
      "target": 34962
    },
    {
      "buffer": 0,
      "byteLength": 113136,
      "byteOffset": 450872,
      "byteStride": 12,
      "name": "floatBufferViews",
      "target": 34962
    },
    {
      "buffer": 0,
      "byteLength": 75424,
      "byteOffset": 564008,
      "byteStride": 16,
      "name": "floatBufferViews",
      "target": 34962
    }
  ],
  "buffers": [
    {
      "byteLength": 639432,
      "uri": "scene.bin"
    }
  ],
  "images": [
    {
      "uri": "textures/DefaultMaterial_baseColor.png"
    },
    {
      "uri": "textures/DefaultMaterial_metallicRoughness.png"
    },
    {
      "uri": "textures/DefaultMaterial_normal.png"
    }
  ],
  "materials": [
    {
      "doubleSided": true,
      "emissiveFactor": [
        0,
        0,
        0
      ],
      "name": "DefaultMaterial",
      "normalTexture": {
        "index": 2,
        "scale": 1,
        "texCoord": 0
      },
      "pbrMetallicRoughness": {
        "baseColorFactor": [
          1,
          1,
          1,
          1
        ],
        "baseColorTexture": {
          "index": 0,
          "texCoord": 0
        },
        "metallicFactor": 1,
        "metallicRoughnessTexture": {
          "index": 1,
          "texCoord": 0
        },
        "roughnessFactor": 0.57324632605536607
      }
    }
  ],
  "meshes": [
    {
      "name": "Low_DefaultMaterial_0",
      "primitives": [
        {
          "attributes": {
            "NORMAL": 1,
            "POSITION": 0,
            "TANGENT": 2,
            "TEXCOORD_0": 3,
            "TEXCOORD_1": 4,
            "TEXCOORD_2": 5,
            "TEXCOORD_3": 6,
            "TEXCOORD_4": 7,
            "TEXCOORD_5": 8,
            "TEXCOORD_6": 9,
            "TEXCOORD_7": 10,
            "TEXCOORD_8": 11,
            "TEXCOORD_9": 12
          },
          "indices": 13,
          "material": 0,
          "mode": 4
        }
      ]
    }
  ],
  "nodes": [
    {
      "children": [
        1
      ],
      "name": "RootNode (gltf orientation matrix)",
      "rotation": [
        -0.70710678118654746,
        -0,
        -0,
        0.70710678118654757
      ]
    },
    {
      "children": [
        2
      ],
      "name": "RootNode (model correction matrix)"
    },
    {
      "children": [
        3
      ],
      "matrix": [
        1,
        0,
        0,
        0,
        0,
        0,
        1,
        0,
        0,
        -1,
        0,
        0,
        0,
        0,
        0,
        1
      ],
      "name": "71e853ba9a7243ed8238f97525166166.fbx"
    },
    {
      "children": [
        4
      ],
      "name": "RootNode"
    },
    {
      "children": [
        5
      ],
      "matrix": [
        1,
        0,
        0,
        0,
        0,
        1,
        0,
        0,
        0,
        0,
        1,
        0,
        72.200263977050781,
        92.858306884765625,
        -59.403060913085938,
        1
      ],
      "name": "Low"
    },
    {
      "mesh": 0,
      "name": "Low_DefaultMaterial_0"
    }
  ],
  "samplers": [
    {
      "magFilter": 9729,
      "minFilter": 9987,
      "wrapS": 10497,
      "wrapT": 10497
    }
  ],
  "scene": 0,
  "scenes": [
    {
      "name": "OSG_Scene",
      "nodes": [
        0
      ]
    }
  ],
  "textures": [
    {
      "sampler": 0,
      "source": 0
    },
    {
      "sampler": 0,
      "source": 1
    },
    {
      "sampler": 0,
      "source": 2
    }
  ]
}

